<svg width="24" height="24" viewBox="0 0 24 24" fill="none" xmlns="http://www.w3.org/2000/svg">
<path d="M12.45 6.6H21M12.45 6.6C12.45 7.28956 12.1655 7.95088 11.6592 8.43848C11.1528 8.92607 10.4661 9.2 9.75 9.2C9.03392 9.2 8.34716 8.92607 7.84081 8.43848C7.33446 7.95088 7.05 7.28956 7.05 6.6M12.45 6.6C12.45 5.91044 12.1655 5.24912 11.6592 4.76152C11.1528 4.27393 10.4661 4 9.75 4C9.03392 4 8.34716 4.27393 7.84081 4.76152C7.33446 5.24912 7.05 5.91044 7.05 6.6M7.05 6.6H3M18.3 17.4H21M18.3 17.4C18.3 18.0896 18.0155 18.7509 17.5092 19.2385C17.0028 19.7261 16.3161 20 15.6 20C14.8839 20 14.1972 19.7261 13.6908 19.2385C13.1845 18.7509 12.9 18.0896 12.9 17.4M18.3 17.4C18.3 16.7104 18.0155 16.0491 17.5092 15.5615C17.0028 15.0739 16.3161 14.8 15.6 14.8C14.8839 14.8 14.1972 15.0739 13.6908 15.5615C13.1845 16.0491 12.9 16.7104 12.9 17.4M12.9 17.4H3" stroke="#E8EBF1" stroke-width="2" stroke-linecap="round" stroke-linejoin="round"/>
</svg>
