<svg width="24" height="24" viewBox="0 0 24 24" fill="none" xmlns="http://www.w3.org/2000/svg">
<path d="M14 6V5.25C14 4.65326 13.763 4.08097 13.341 3.65901C12.919 3.23705 12.3468 3 11.75 3H5.25002C4.65328 3 4.08098 3.23705 3.65903 3.65901C3.23707 4.08097 3.00002 4.65326 3.00002 5.25V18.75C3.00002 19.3467 3.23707 19.919 3.65903 20.341C4.08098 20.7629 4.65328 21 5.25002 21H11.75C12.3468 21 12.919 20.7629 13.341 20.341C13.763 19.919 14 19.3467 14 18.75V18M18 15L21 12M21 12L18 9M21 12H10" stroke="#FF5F5F" stroke-width="2" stroke-linecap="round" stroke-linejoin="round"/>
</svg>
